<svg width="177" height="30" viewBox="0 0 177 30" fill="none" xmlns="http://www.w3.org/2000/svg">
<g clip-path="url(#clip0_1_993)">
<path d="M60.46 11.0818V0.36684C60.4619 0.317981 60.4536 0.269269 60.4356 0.223776C60.4177 0.178284 60.3906 0.136996 60.3559 0.102517C60.3212 0.068037 60.2798 0.0411129 60.2342 0.0234413C60.1886 0.00576975 60.1399 -0.00226606 60.091 -0.000159588H58.193C58.1443 -0.00198283 58.0958 0.00626274 58.0505 0.024061C58.0051 0.0418593 57.9639 0.0688271 57.9295 0.103277C57.895 0.137726 57.868 0.178916 57.8502 0.224267C57.8324 0.269619 57.8242 0.318156 57.826 0.36684V21.4298C57.826 21.6438 57.979 21.7968 58.193 21.7968H60.091C60.1397 21.7987 60.1882 21.7904 60.2336 21.7726C60.279 21.7548 60.3201 21.7279 60.3546 21.6934C60.389 21.659 60.416 21.6178 60.4338 21.5724C60.4516 21.5271 60.4599 21.4785 60.458 21.4298V20.5418C60.458 20.3278 60.55 20.2968 60.703 20.4498C61.683 21.5518 63.03 22.1338 64.743 22.1338C66.428 22.1338 67.836 21.5208 68.938 20.2968C70.04 19.0718 70.591 17.5718 70.591 15.7968C70.591 14.0208 70.04 12.5518 68.938 11.3268C67.836 10.1028 66.458 9.49084 64.744 9.49084C63.03 9.49084 61.683 10.0408 60.704 11.1738C60.581 11.2968 60.458 11.2658 60.458 11.0828L60.46 11.0818ZM60.337 15.8268C60.3373 14.8121 60.7404 13.839 61.4579 13.1214C62.1753 12.4038 63.1483 12.0004 64.163 11.9998C65.1779 12.0001 66.1512 12.4034 66.8688 13.121C67.5865 13.8387 67.9898 14.8119 67.99 15.8268C67.9895 16.8416 67.5861 17.8146 66.8685 18.532C66.1509 19.2494 65.1778 19.6526 64.163 19.6528C63.1485 19.6523 62.1756 19.249 61.4582 18.5316C60.7408 17.8142 60.3376 16.8414 60.337 15.8268ZM130.102 11.5708C130.99 10.3468 132.612 9.48984 134.327 9.48984H134.449C134.51 9.48984 134.571 9.67284 134.571 9.88784V11.7858C134.571 11.9998 134.418 12.1218 134.204 12.1218H133.837C132.122 12.1218 130.714 13.0408 130.071 14.1418C129.98 14.3268 129.888 14.6318 129.888 14.8468V21.4288C129.89 21.4776 129.882 21.5262 129.864 21.5717C129.846 21.6171 129.819 21.6583 129.784 21.6928C129.75 21.7272 129.708 21.7542 129.663 21.7719C129.617 21.7897 129.569 21.7978 129.52 21.7958H127.622C127.573 21.7977 127.525 21.7894 127.479 21.7716C127.434 21.7538 127.393 21.7269 127.358 21.6924C127.324 21.658 127.297 21.6168 127.279 21.5714C127.261 21.5261 127.253 21.4775 127.255 21.4288V10.1628C127.255 9.94884 127.408 9.79584 127.622 9.79584H129.52C129.735 9.79584 129.888 9.94884 129.888 10.1628V11.5098C129.888 11.7238 129.98 11.7238 130.102 11.5708ZM141.551 9.48984C139.714 9.48984 138.245 10.1018 137.112 11.2958C135.949 12.4898 135.398 14.0198 135.398 15.7958C135.398 17.6938 136.041 19.1938 137.296 20.3568C138.582 21.5198 140.143 22.1328 142.01 22.1328C143.694 22.1328 145.071 21.7958 146.143 21.1528C146.327 21.0608 146.449 20.7858 146.449 20.5708V19.0708C146.449 18.8568 146.296 18.7958 146.143 18.8878C145.052 19.4745 143.831 19.7798 142.592 19.7758C140.296 19.7758 138.612 18.7038 138.153 16.8978C138.092 16.7138 138.245 16.5308 138.459 16.5308H146.909C147.122 16.5308 147.276 16.3778 147.276 16.1938V15.8568C147.276 13.6838 146.51 11.6938 144.735 10.4388C143.816 9.79584 142.775 9.48884 141.551 9.48884V9.48984ZM138.091 14.3568C138.337 12.8868 139.561 11.7238 141.398 11.7238C142.378 11.7238 143.143 12.0308 143.694 12.6118C144.214 13.1318 144.459 13.7448 144.52 14.3878C144.521 14.4161 144.515 14.4442 144.505 14.4704C144.494 14.4966 144.479 14.5204 144.459 14.5404C144.439 14.5604 144.415 14.5761 144.389 14.5867C144.362 14.5972 144.334 14.6024 144.306 14.6018H138.245C138.153 14.5718 138.061 14.4798 138.092 14.3568H138.091ZM154.776 9.48984C152.939 9.48984 151.469 10.1018 150.336 11.2958C149.173 12.4898 148.622 14.0198 148.622 15.7958C148.622 17.6938 149.265 19.1938 150.52 20.3568C151.806 21.5198 153.367 22.1328 155.235 22.1328C156.918 22.1328 158.295 21.7958 159.367 21.1528C159.551 21.0608 159.673 20.7858 159.673 20.5708V19.0708C159.673 18.8568 159.52 18.7958 159.367 18.8878C158.276 19.4744 157.056 19.7796 155.817 19.7758C153.52 19.7758 151.837 18.7038 151.377 16.8978C151.317 16.7138 151.469 16.5308 151.684 16.5308H160.102C160.316 16.5308 160.469 16.3778 160.469 16.1938V15.8568C160.469 13.6838 159.704 11.6938 157.929 10.4388C157.041 9.79584 156 9.48884 154.776 9.48884V9.48984ZM151.346 14.3568C151.592 12.8868 152.816 11.7238 154.653 11.7238C155.633 11.7238 156.398 12.0308 156.949 12.6118C157.469 13.1318 157.714 13.7448 157.776 14.3878C157.777 14.4162 157.771 14.4443 157.761 14.4706C157.75 14.4969 157.734 14.5207 157.714 14.5407C157.694 14.5607 157.67 14.5765 157.644 14.587C157.618 14.5975 157.589 14.6025 157.561 14.6018H151.531C151.408 14.5718 151.316 14.4798 151.347 14.3568H151.346ZM78.185 9.48984C77.3566 9.48866 76.536 9.65096 75.7704 9.96744C75.0048 10.2839 74.3092 10.7484 73.7234 11.3342C73.1376 11.92 72.6731 12.6156 72.3566 13.3812C72.0401 14.1469 71.8778 14.9674 71.879 15.7958C71.8778 16.6243 72.0401 17.4448 72.3566 18.2104C72.6731 18.9761 73.1376 19.6717 73.7234 20.2575C74.3092 20.8433 75.0048 21.3078 75.7704 21.6242C76.536 21.9407 77.3566 22.103 78.185 22.1018C79.0135 22.103 79.834 21.9407 80.5996 21.6242C81.3652 21.3078 82.0609 20.8433 82.6467 20.2575C83.2325 19.6717 83.6969 18.9761 84.0134 18.2104C84.3299 17.4448 84.4922 16.6243 84.491 15.7958C84.4922 14.9674 84.3299 14.1469 84.0134 13.3812C83.6969 12.6156 83.2325 11.92 82.6467 11.3342C82.0609 10.7484 81.3652 10.2839 80.5996 9.96744C79.834 9.65096 79.0135 9.48866 78.185 9.48984ZM78.185 19.5608C77.6904 19.5612 77.2006 19.4641 76.7436 19.2751C76.2866 19.086 75.8713 18.8087 75.5215 18.459C75.1718 18.1094 74.8944 17.6942 74.7052 17.2372C74.516 16.7802 74.4188 16.2904 74.419 15.7958C74.4188 15.3013 74.516 14.8115 74.7052 14.3545C74.8944 13.8975 75.1718 13.4823 75.5215 13.1326C75.8713 12.783 76.2866 12.5057 76.7436 12.3166C77.2006 12.1276 77.6904 12.0304 78.185 12.0308C78.6795 12.0306 79.1692 12.1278 79.6261 12.3169C80.083 12.506 80.4982 12.7833 80.8479 13.133C81.1975 13.4827 81.4748 13.8978 81.664 14.3547C81.8531 14.8116 81.9503 15.3013 81.95 15.7958C81.9503 16.2903 81.8531 16.78 81.664 17.237C81.4748 17.6939 81.1975 18.109 80.8479 18.4587C80.4982 18.8083 80.083 19.0857 79.6261 19.2748C79.1692 19.4639 78.6795 19.5611 78.185 19.5608ZM52.317 11.1728C51.337 10.0708 49.991 9.48984 48.277 9.48984C46.593 9.48984 45.185 10.1018 44.083 11.3268C42.981 12.5508 42.43 14.0508 42.43 15.7958C42.43 17.5708 42.98 19.0708 44.083 20.2958C45.185 21.5198 46.563 22.1328 48.277 22.1328C49.991 22.1328 51.337 21.5818 52.317 20.4488C52.44 20.2958 52.562 20.3268 52.562 20.5408V21.4288C52.562 21.6428 52.715 21.7958 52.93 21.7958H54.828C54.8767 21.7977 54.9252 21.7894 54.9706 21.7716C55.016 21.7538 55.0571 21.7269 55.0916 21.6924C55.126 21.658 55.153 21.6168 55.1708 21.5714C55.1886 21.5261 55.1968 21.4775 55.195 21.4288V0.36684C55.1969 0.318068 55.1886 0.269444 55.1707 0.224022C55.1529 0.1786 55.1258 0.137362 55.0913 0.102897C55.0567 0.0684329 55.0154 0.0414868 54.9699 0.0237518C54.9244 0.00601672 54.8758 -0.00212418 54.827 -0.000159588H52.929C52.8803 -0.00212418 52.8316 0.00601672 52.7861 0.0237518C52.7407 0.0414868 52.6994 0.0684329 52.6648 0.102897C52.6302 0.137362 52.6032 0.1786 52.5853 0.224022C52.5675 0.269444 52.5592 0.318068 52.561 0.36684V11.0818C52.561 11.2648 52.469 11.2958 52.316 11.1728H52.317ZM48.858 19.6528C47.8435 19.6523 46.8706 19.249 46.1532 18.5316C45.4358 17.8142 45.0326 16.8414 45.032 15.8268C45.0323 14.8123 45.4353 13.8393 46.1525 13.1217C46.8697 12.4042 47.8425 12.0006 48.857 11.9998C49.8719 12.0001 50.8452 12.4034 51.5628 13.121C52.2805 13.8387 52.6838 14.8119 52.684 15.8268C52.6835 16.8416 52.2801 17.8146 51.5625 18.532C50.8449 19.2494 49.8718 19.6526 48.857 19.6528H48.858ZM95.664 11.1728C94.684 10.0708 93.338 9.48984 91.624 9.48984C89.94 9.48984 88.532 10.1018 87.43 11.3268C86.328 12.5508 85.777 14.0508 85.777 15.7958C85.777 17.5708 86.327 19.0708 87.43 20.2958C88.532 21.5198 89.91 22.1328 91.623 22.1328C93.338 22.1328 94.685 21.5818 95.664 20.4488C95.787 20.2958 95.909 20.3268 95.909 20.5408V21.4288C95.909 21.6428 96.062 21.7958 96.277 21.7958H98.174C98.2228 21.7978 98.2714 21.7897 98.3169 21.7719C98.3624 21.7542 98.4037 21.7272 98.4382 21.6928C98.4728 21.6583 98.4999 21.6171 98.5177 21.5717C98.5356 21.5262 98.5439 21.4776 98.542 21.4288V0.36684C98.5439 0.317981 98.5356 0.269269 98.5176 0.223776C98.4997 0.178284 98.4726 0.136996 98.4379 0.102517C98.4032 0.068037 98.3618 0.0411129 98.3162 0.0234413C98.2706 0.00576975 98.2219 -0.00226606 98.173 -0.000159588H96.276C96.2273 -0.00212418 96.1786 0.00601672 96.1331 0.0237518C96.0877 0.0414868 96.0464 0.0684329 96.0118 0.102897C95.9772 0.137362 95.9502 0.1786 95.9323 0.224022C95.9145 0.269444 95.9062 0.318068 95.908 0.36684V11.0818C95.878 11.2648 95.786 11.2958 95.663 11.1728H95.664ZM92.205 19.6528C91.1905 19.6523 90.2176 19.249 89.5002 18.5316C88.7828 17.8142 88.3795 16.8414 88.379 15.8268C88.3793 14.8123 88.7823 13.8393 89.4995 13.1217C90.2167 12.4042 91.1895 12.0006 92.204 11.9998C93.2189 12.0001 94.1922 12.4034 94.9098 13.121C95.6275 13.8387 96.0308 14.8119 96.031 15.8268C96 17.9388 94.286 19.6528 92.204 19.6528H92.205ZM36.122 9.48984C38.969 9.48984 40.562 11.3878 40.562 14.4798V21.4288C40.5639 21.4776 40.5556 21.5262 40.5377 21.5717C40.5199 21.6171 40.4928 21.6583 40.4583 21.6928C40.4237 21.7272 40.3824 21.7542 40.3369 21.7719C40.2914 21.7897 40.2428 21.7978 40.194 21.7958H38.296C38.2473 21.7977 38.1988 21.7894 38.1535 21.7716C38.1081 21.7538 38.0669 21.7269 38.0325 21.6924C37.998 21.658 37.971 21.6168 37.9532 21.5714C37.9354 21.5261 37.9272 21.4775 37.929 21.4288L37.959 15.0608C37.9602 14.6545 37.8811 14.2519 37.7261 13.8762C37.5711 13.5005 37.3434 13.1592 37.056 12.8718C36.7687 12.5845 36.4274 12.3568 36.0517 12.2018C35.676 12.0468 35.2734 11.9677 34.867 11.9688C34.4607 11.9678 34.0582 12.047 33.6827 12.2021C33.3071 12.3571 32.9659 12.5848 32.6786 12.8722C32.3914 13.1595 32.1638 13.5008 32.0089 13.8764C31.854 14.252 31.7748 14.6545 31.776 15.0608L31.714 21.4288C31.7158 21.4775 31.7076 21.5261 31.6898 21.5714C31.672 21.6168 31.645 21.658 31.6106 21.6924C31.5761 21.7269 31.5349 21.7538 31.4896 21.7716C31.4442 21.7894 31.3957 21.7977 31.347 21.7958H29.449C29.4003 21.7977 29.3518 21.7894 29.3065 21.7716C29.2611 21.7538 29.2199 21.7269 29.1855 21.6924C29.151 21.658 29.124 21.6168 29.1062 21.5714C29.0884 21.5261 29.0802 21.4775 29.082 21.4288V10.1628C29.082 9.94884 29.235 9.79584 29.449 9.79584H31.347C31.561 9.79584 31.714 9.94884 31.714 10.1628V11.0198C31.714 11.2348 31.837 11.2648 31.959 11.1118C33.092 10.0408 34.469 9.48984 36.122 9.48984ZM23.786 21.4288V10.1628C23.786 9.94884 23.939 9.79584 24.153 9.79584H26.051C26.265 9.79584 26.418 9.94884 26.418 10.1628V21.4298C26.4198 21.4785 26.4116 21.5271 26.3938 21.5724C26.376 21.6178 26.349 21.659 26.3146 21.6934C26.2801 21.7279 26.2389 21.7548 26.1936 21.7726C26.1482 21.7904 26.0997 21.7987 26.051 21.7968H24.153C24.1043 21.7987 24.0558 21.7904 24.0105 21.7726C23.9651 21.7548 23.9239 21.7279 23.8895 21.6934C23.855 21.659 23.828 21.6178 23.8102 21.5724C23.7924 21.5271 23.7842 21.4785 23.786 21.4298V21.4288ZM26.724 2.75484C26.724 3.73484 25.959 4.43884 25.01 4.40784C24.092 4.37784 23.357 3.55084 23.418 2.60184C23.51 1.74484 24.184 1.07184 25.102 1.07184C26.02 1.07184 26.724 1.80584 26.724 2.75484ZM21.154 14.3268V21.4288C21.1559 21.4776 21.1476 21.5262 21.1297 21.5717C21.1119 21.6171 21.0848 21.6583 21.0502 21.6928C21.0157 21.7272 20.9744 21.7542 20.9289 21.7719C20.8834 21.7897 20.8348 21.7978 20.786 21.7958H18.888C18.8393 21.7978 18.7906 21.7897 18.7451 21.7719C18.6997 21.7542 18.6584 21.7272 18.6238 21.6928C18.5892 21.6583 18.5622 21.6171 18.5443 21.5717C18.5265 21.5262 18.5182 21.4776 18.52 21.4288V14.7858C18.5215 14.4236 18.4512 14.0647 18.3133 13.7298C18.1753 13.3949 17.9725 13.0906 17.7163 12.8345C17.4602 12.5784 17.1559 12.3755 16.821 12.2376C16.4861 12.0997 16.1272 12.0294 15.765 12.0308C15.4028 12.0294 15.0439 12.0997 14.709 12.2376C14.3741 12.3755 14.0698 12.5784 13.8137 12.8345C13.5576 13.0906 13.3547 13.3949 13.2168 13.7298C13.0788 14.0647 13.0086 14.4236 13.01 14.7858V21.4288C13.0118 21.4775 13.0036 21.5261 12.9858 21.5714C12.968 21.6168 12.941 21.658 12.9066 21.6924C12.8721 21.7269 12.8309 21.7538 12.7856 21.7716C12.7402 21.7894 12.6917 21.7977 12.643 21.7958H10.745C10.6963 21.7977 10.6478 21.7894 10.6025 21.7716C10.5571 21.7538 10.5159 21.7269 10.4815 21.6924C10.447 21.658 10.42 21.6168 10.4022 21.5714C10.3844 21.5261 10.3762 21.4775 10.378 21.4288V14.7858C10.3754 14.0478 10.081 13.3407 9.55911 12.8188C9.03721 12.2968 8.33011 12.0025 7.59203 11.9998C6.85394 12.0025 6.14684 12.2968 5.62494 12.8188C5.10303 13.3407 4.80866 14.0478 4.80603 14.7858V21.4288C4.80785 21.4775 4.7996 21.5261 4.7818 21.5714C4.76401 21.6168 4.73704 21.658 4.70259 21.6924C4.66814 21.7269 4.62695 21.7538 4.5816 21.7716C4.53625 21.7894 4.48771 21.7977 4.43903 21.7958H2.60203C2.55334 21.7977 2.5048 21.7894 2.45945 21.7716C2.4141 21.7538 2.37291 21.7269 2.33846 21.6924C2.30401 21.658 2.27704 21.6168 2.25925 21.5714C2.24145 21.5261 2.2332 21.4775 2.23503 21.4288V13.8368C2.23503 13.0408 1.86703 12.4288 0.888025 12.4288H0.368025C0.319083 12.4308 0.270262 12.4226 0.22465 12.4048C0.179038 12.3869 0.137628 12.3598 0.10304 12.3251C0.0684509 12.2904 0.0414363 12.2489 0.0237045 12.2033C0.00597263 12.1576 -0.00209046 12.1088 2.52083e-05 12.0598V10.1618C2.52083e-05 9.94784 0.153025 9.79484 0.367025 9.79484H1.77603C4.10203 9.73384 4.62203 10.9888 4.68403 11.0808C4.80603 11.2338 4.86703 11.2338 4.92903 11.1408C5.81603 10.1008 7.22402 9.54984 8.78603 9.54984C10.5 9.54984 11.786 10.2848 12.398 11.3558C12.49 11.5398 12.643 11.5398 12.765 11.3858C13.653 10.2848 15.122 9.54984 16.898 9.54984C19.561 9.54984 21.153 11.2338 21.153 14.3258L21.154 14.3268ZM176.02 19.5918V21.4898C176.022 21.5385 176.014 21.5871 175.996 21.6324C175.978 21.6778 175.951 21.719 175.917 21.7534C175.882 21.7879 175.841 21.8148 175.796 21.8326C175.75 21.8504 175.702 21.8587 175.653 21.8568H174.306C174.031 21.8568 173.786 21.8268 173.571 21.7958C171.337 21.3978 171.153 19.3158 171.153 18.8258V15.1218C171.154 14.7155 171.075 14.313 170.92 13.9375C170.765 13.5619 170.537 13.2207 170.25 12.9335C169.962 12.6462 169.621 12.4186 169.245 12.2637C168.87 12.1088 168.467 12.0297 168.061 12.0308C167.655 12.0297 167.252 12.1088 166.877 12.2637C166.501 12.4186 166.16 12.6462 165.872 12.9335C165.585 13.2207 165.357 13.5619 165.202 13.9375C165.047 14.313 164.968 14.7155 164.969 15.1218L164.939 21.4288C164.941 21.4776 164.933 21.5262 164.915 21.5717C164.897 21.6171 164.87 21.6583 164.835 21.6928C164.801 21.7272 164.759 21.7542 164.714 21.7719C164.668 21.7897 164.62 21.7978 164.571 21.7958H162.673C162.49 21.7958 162.367 21.6728 162.306 21.5198V10.1628C162.306 9.94884 162.459 9.79584 162.673 9.79584H164.571C164.694 9.79584 164.816 9.85684 164.878 9.94884C164.908 10.0098 164.938 10.0708 164.938 10.1628V11.1118C164.969 11.2348 165.061 11.2648 165.184 11.1418C166.316 10.0408 167.694 9.48984 169.316 9.48984C172.163 9.48984 173.756 11.3878 173.756 14.4798V18.3368C173.816 18.9488 174 19.1938 174.582 19.2238H175.653C175.867 19.2238 176.02 19.3778 176.02 19.5918ZM113.02 10.1318L112.286 11.8468L112.316 11.8168L106.806 24.5508C106.041 26.2648 105.031 27.5508 103.316 27.5808H101.571C101.522 27.5827 101.474 27.5744 101.428 27.5566C101.383 27.5388 101.342 27.5119 101.307 27.4774C101.273 27.443 101.246 27.4018 101.228 27.3564C101.21 27.3111 101.202 27.2625 101.204 27.2138V25.4078C101.204 25.1938 101.357 25.0408 101.571 25.0408H103.041C104.112 25.0408 104.724 23.1428 105.031 22.4688C105.214 22.0408 105.429 21.5818 105.429 21.5818L100.255 10.1628C100.163 9.97984 100.255 9.82684 100.469 9.82684H102.673C102.782 9.83237 102.887 9.86632 102.978 9.92529C103.069 9.98426 103.143 10.0662 103.193 10.1628L106.867 18.1528L110.204 10.1628C110.254 10.0663 110.328 9.9845 110.419 9.92555C110.51 9.8666 110.616 9.83257 110.724 9.82684H112.837C112.99 9.79584 113.082 9.94884 113.02 10.1328V10.1318ZM120.796 9.79584C120.735 9.79584 120.643 9.76584 120.582 9.76584C120.019 9.5801 119.43 9.48689 118.837 9.48984C115.837 9.48984 113.387 11.9388 113.387 14.9388C113.387 16.2548 113.847 17.4788 114.643 18.4288C114.673 18.4588 114.673 18.5508 114.643 18.5818C114.13 19.1901 113.849 19.9595 113.847 20.7548C113.847 21.3978 114.031 21.9798 114.337 22.4688C114.367 22.5308 114.367 22.5918 114.307 22.6218C113.387 23.3878 112.807 24.4898 112.807 25.7138V25.7438C112.807 26.0818 112.837 27.2138 113.786 28.2548C114.826 29.3878 116.541 29.9688 118.898 29.9688C121.194 29.9688 122.908 29.3878 123.949 28.2858C124.929 27.2138 124.989 26.0508 124.989 25.7448V25.7148C124.989 23.4488 123.061 21.6118 120.673 21.6118H117.062C116.839 21.6 116.63 21.5013 116.48 21.3368C116.48 21.3068 116.449 21.3068 116.449 21.2758C116.396 21.2007 116.355 21.1182 116.327 21.0308V20.9998C116.327 20.9698 116.296 20.9388 116.296 20.9078V20.7238C116.296 20.4178 116.418 20.1738 116.633 19.9898C116.663 19.9598 116.755 19.9598 116.816 19.9598C117.459 20.2176 118.144 20.3522 118.836 20.3568C121.836 20.3568 124.286 17.9078 124.286 14.9078C124.286 13.9588 124.041 13.0708 123.612 12.2758C123.582 12.2138 123.612 12.1838 123.673 12.1838H124.714C124.763 12.1858 124.812 12.1776 124.857 12.1599C124.903 12.1421 124.944 12.115 124.979 12.0804C125.013 12.0459 125.04 12.0045 125.058 11.959C125.076 11.9134 125.084 11.8647 125.082 11.8158V10.1328C125.084 10.084 125.076 10.0353 125.058 9.98971C125.04 9.94417 125.013 9.90281 124.979 9.86824C124.944 9.83366 124.903 9.80663 124.857 9.78883C124.812 9.77104 124.763 9.76287 124.714 9.76484H120.796V9.79484V9.79584ZM122.51 25.7448V25.9588C122.468 26.2033 122.35 26.4282 122.173 26.6018C121.623 27.2138 120.459 27.5198 118.929 27.5198C117.398 27.5198 116.235 27.2138 115.684 26.6328C115.347 26.2958 115.316 25.9588 115.316 25.8668V25.7138C115.316 24.8268 116.143 24.0918 117.153 24.0918H120.673C121.683 24.0918 122.51 24.8268 122.51 25.7448C122.51 25.7448 122.51 25.7148 122.51 25.7448ZM118.837 17.9688C117.184 17.9688 115.837 16.6218 115.837 14.9688C115.837 13.3158 117.184 11.9688 118.837 11.9688C120.49 11.9688 121.837 13.3158 121.837 14.9688C121.837 16.6218 120.49 17.9688 118.837 17.9688Z" fill="black"/>
</g>
<defs>
<clipPath id="clip0_1_993">
<rect width="177" height="30" fill="white"/>
</clipPath>
</defs>
</svg>
