<svg width="138.000000" height="15.000000" viewBox="0 0 138 15" fill="none" xmlns="http://www.w3.org/2000/svg" xmlns:xlink="http://www.w3.org/1999/xlink">
	<desc>
			Created with Pixso.
	</desc>
	<defs/>
	<path id="Vector" d="M4.32 4.63L6.9 4.63L6.9 7.04L4.32 7.04L4.32 14.55L1.4 14.55L1.4 7.04L0 7.04L0 4.63L1.4 4.63L1.4 4.19C1.4 2.85 1.77 1.82 2.5 1.09C3.23 0.36 4.23 -0.01 5.49 0C6.17 0 6.72 0.1 7.12 0.32L7.12 2.81C6.78 2.63 6.39 2.53 6 2.54C5.57 2.53 5.15 2.66 4.81 2.92C4.48 3.18 4.32 3.61 4.32 4.21L4.32 4.63L4.32 4.63ZM17.17 12.18C16.76 12.98 16.14 13.65 15.36 14.11C14.58 14.58 13.64 14.81 12.56 14.81C11.83 14.82 11.1 14.69 10.42 14.43C9.8 14.19 9.24 13.83 8.76 13.36C8.29 12.88 7.92 12.32 7.67 11.7C7.41 11.03 7.27 10.31 7.28 9.59C7.27 8.88 7.41 8.18 7.67 7.52C7.92 6.9 8.29 6.33 8.76 5.86C9.23 5.39 9.78 5.02 10.39 4.77C11.04 4.5 11.74 4.36 12.44 4.37C13.14 4.36 13.85 4.5 14.5 4.77C15.1 5.01 15.65 5.39 16.1 5.86C16.55 6.34 16.91 6.91 17.14 7.53C17.39 8.22 17.52 8.94 17.51 9.67C17.51 9.85 17.51 9.99 17.5 10.11C17.5 10.21 17.49 10.3 17.47 10.4L10.16 10.4C10.18 10.68 10.27 10.95 10.4 11.2C10.54 11.44 10.72 11.66 10.93 11.83C11.15 12.01 11.4 12.15 11.67 12.25C11.95 12.35 12.25 12.41 12.55 12.4C13.1 12.4 13.54 12.3 13.86 12.08C14.19 11.85 14.48 11.55 14.68 11.2L17.17 12.18L17.17 12.18ZM14.63 8.49C14.58 7.97 14.32 7.5 13.93 7.17C13.6 6.92 13.21 6.75 12.8 6.69C12.4 6.63 11.98 6.67 11.59 6.81C11.1 7 10.69 7.35 10.41 7.8C10.29 8.01 10.21 8.25 10.18 8.49L14.63 8.49L14.63 8.49ZM29.23 4.63L29.23 14.55L26.35 14.55L26.35 13.23C26 13.73 25.52 14.14 24.97 14.39C24.39 14.66 23.76 14.79 23.13 14.79C22.48 14.79 21.85 14.66 21.26 14.39C20.7 14.13 20.19 13.75 19.77 13.29C19.34 12.81 19 12.26 18.78 11.65C18.53 10.99 18.41 10.29 18.41 9.59C18.41 8.89 18.53 8.2 18.78 7.54C19 6.94 19.34 6.38 19.77 5.9C20.19 5.43 20.7 5.06 21.26 4.79C21.85 4.52 22.48 4.38 23.13 4.39C23.76 4.39 24.39 4.52 24.97 4.77C25.53 5.02 26 5.41 26.35 5.92L26.35 4.63L29.23 4.63ZM21.33 9.59C21.33 9.94 21.4 10.28 21.54 10.6C21.67 10.9 21.85 11.17 22.08 11.41C22.32 11.65 22.6 11.84 22.91 11.97C23.22 12.1 23.55 12.17 23.89 12.17C24.23 12.17 24.56 12.1 24.87 11.97C25.18 11.84 25.47 11.65 25.7 11.41C25.93 11.17 26.12 10.9 26.25 10.6C26.38 10.28 26.45 9.94 26.45 9.59C26.45 9.25 26.38 8.91 26.25 8.59C26.12 8.29 25.93 8.01 25.7 7.78C25.47 7.54 25.18 7.34 24.87 7.21C24.4 7.02 23.89 6.97 23.39 7.07C22.89 7.17 22.44 7.41 22.08 7.78C21.85 8.01 21.67 8.29 21.54 8.59C21.4 8.91 21.33 9.25 21.33 9.59ZM34.6 1.72L34.6 4.63L37.12 4.63L37.12 7.04L34.6 7.04L34.6 10.68C34.6 11.21 34.72 11.59 34.95 11.82C35.19 12.05 35.55 12.16 36.04 12.16C36.23 12.16 36.42 12.14 36.6 12.09C36.79 12.05 36.97 11.97 37.13 11.86L37.13 14.39C36.86 14.51 36.57 14.61 36.28 14.67C35.89 14.76 35.48 14.8 35.08 14.79C34.03 14.79 33.2 14.49 32.6 13.88C31.99 13.27 31.69 12.41 31.68 11.3L31.68 7.04L30.27 7.04L30.27 4.63L31.68 4.63L31.68 1.72L34.6 1.72ZM41.1 14.55L38.16 14.55L38.16 0.5L41.1 0.5L41.1 5.89C41.4 5.42 41.81 5.04 42.3 4.77C42.84 4.49 43.44 4.36 44.04 4.38C45.19 4.38 46.08 4.74 46.73 5.46C47.38 6.18 47.7 7.17 47.71 8.43L47.71 14.56L44.77 14.56L44.77 9.09C44.77 8.45 44.61 7.95 44.3 7.6C43.99 7.24 43.56 7.06 43 7.07C42.73 7.06 42.48 7.11 42.24 7.21C42 7.31 41.78 7.47 41.62 7.67C41.27 8.07 41.1 8.61 41.1 9.3L41.1 14.55ZM58.5 12.18C58.09 12.98 57.47 13.65 56.69 14.11C55.91 14.58 54.97 14.81 53.89 14.81C53.16 14.82 52.43 14.69 51.75 14.43C51.13 14.19 50.56 13.83 50.09 13.36C49.62 12.88 49.25 12.32 49 11.7C48.74 11.03 48.6 10.31 48.61 9.59C48.6 8.88 48.74 8.18 49 7.52C49.25 6.9 49.62 6.33 50.09 5.86C50.56 5.39 51.11 5.02 51.72 4.77C53.04 4.24 54.51 4.24 55.83 4.77C56.43 5.01 56.97 5.39 57.42 5.86C57.88 6.34 58.23 6.91 58.46 7.53C58.71 8.22 58.84 8.94 58.83 9.67C58.83 9.85 58.83 9.99 58.82 10.11C58.82 10.21 58.81 10.3 58.79 10.4L51.49 10.4C51.51 10.68 51.6 10.95 51.73 11.2C51.87 11.44 52.04 11.66 52.26 11.83C52.48 12.01 52.73 12.15 53 12.25C53.28 12.35 53.58 12.41 53.88 12.4C54.43 12.4 54.87 12.3 55.19 12.08C55.53 11.85 55.81 11.55 56.01 11.2L58.5 12.18ZM55.96 8.49C55.9 7.97 55.65 7.5 55.25 7.17C54.93 6.92 54.54 6.75 54.13 6.69C53.72 6.63 53.31 6.67 52.92 6.81C52.43 7.01 52.02 7.35 51.75 7.81C51.62 8.01 51.54 8.25 51.52 8.49L55.96 8.49L55.96 8.49ZM66 7.48C65.77 7.39 65.51 7.35 65.26 7.36C64.44 7.36 63.8 7.64 63.35 8.21C62.89 8.77 62.66 9.54 62.66 10.52L62.66 14.55L59.74 14.55L59.74 4.63L62.64 4.63L62.64 6.26C62.89 5.71 63.29 5.24 63.79 4.9C64.3 4.57 64.9 4.4 65.51 4.41C65.61 4.41 65.72 4.42 65.82 4.43C65.88 4.44 65.94 4.45 66 4.47L66 7.48ZM91.35 5.04L91.35 7.54L96.27 7.54L96.27 9.93L91.35 9.93L91.35 14.49L88.4 14.49L88.4 2.6L96.72 2.6L96.72 5.04L91.35 5.04ZM105.45 12.05L105.45 14.49L97.7 14.49L97.7 2.6L100.65 2.6L100.65 12.06L105.45 12.06L105.45 12.05L105.45 12.05ZM116.24 8.55C116.24 12.46 114.06 14.75 110.87 14.75C107.67 14.75 105.5 12.5 105.5 8.55C105.5 4.63 107.67 2.38 110.87 2.38C114.06 2.38 116.24 4.63 116.24 8.55L116.24 8.55ZM113.12 8.53C113.12 5.92 112.23 4.96 110.87 4.96C109.52 4.96 108.62 5.92 108.62 8.53C108.62 11.17 109.52 12.1 110.87 12.1C112.23 12.1 113.12 11.17 113.12 8.53L113.12 8.53ZM126.8 2.6L122.49 10.14L122.49 14.49L119.54 14.49L119.54 10.14L115.22 2.6L118.48 2.6L121.06 7.49L121.22 7.49L123.76 2.6L126.8 2.6ZM137.29 8.53C137.29 12.1 135.33 14.49 131.84 14.49L127.26 14.49L127.26 2.6L131.78 2.6C135.33 2.6 137.29 4.97 137.29 8.53ZM134.25 8.53C134.25 5.97 133.19 5.18 131.27 5.18L130.21 5.18L130.21 11.91L131.27 11.91C133.19 11.91 134.25 11.14 134.25 8.53L134.25 8.53ZM74.15 6.71L74.69 6.17L79.94 11.42L79.4 11.96L74.15 6.71Z" fill="#FFFFFF" fill-opacity="1.000000" fill-rule="nonzero"/>
</svg>
