<svg width="264" height="180" viewBox="0 0 264 180" fill="none" xmlns="http://www.w3.org/2000/svg">
<path fill-rule="evenodd" clip-rule="evenodd" d="M159.384 36.0564C178.542 55.6989 193.387 83.655 189.327 109.414C185.267 135.217 162.302 158.779 135.32 170.797C108.338 182.815 77.3811 183.332 54.1207 170.754C30.8604 158.133 15.2548 132.417 6.58503 102.522C-2.12702 72.6276 -3.86098 38.6409 11.7446 19.8599C27.3502 1.07893 60.2953 -2.45328 88.5037 1.38046C116.712 5.25727 140.184 16.4569 159.384 36.0564Z" fill="white" fill-opacity="0.9"/>
<path fill-rule="evenodd" clip-rule="evenodd" d="M228.627 99.3487C229.795 98.5837 232.228 102.072 231.171 103.293C230.308 104.548 227.715 100.203 228.627 99.3487ZM224.489 97.9618C225.178 98.3191 225.625 98.6276 225.074 99.4475C221.553 100.167 222.942 95.7192 224.489 97.9618ZM221.053 90.7315C222.51 90.5228 224.393 92.0307 223.147 93.1776C222.516 93.0914 221.945 92.8785 221.183 93.1591C218.769 93.6626 218.205 90.7103 221.053 90.7315ZM219.648 96.9344C220.598 98.2888 220.506 100.351 220.359 102.184C218.575 101.79 218.905 98.0522 219.648 96.9344ZM213.372 91.9669C212.123 91.851 211.047 90.129 212.263 89.0759C213.585 88.4031 216.054 89.8573 216.052 91.3666C215.966 92.8693 214.671 92.3124 213.372 91.9669ZM208.633 79.8679C209.535 80.163 211.194 83.6259 210.241 84.3857C208.968 85.0269 207.456 80.6262 208.633 79.8679ZM202.289 83.6477C203.193 81.0696 206.175 85.6278 205.462 87.0714C204.286 88.0769 202.178 84.928 202.289 83.6477ZM203.205 74.9618C204.63 76.8352 202.247 77.9978 200.721 78.5963C197.192 79.4365 201.882 73.7749 203.205 74.9618ZM195.975 73.9337C195.11 72.1147 197.354 68.8065 197.31 72.0209C196.851 72.742 197.104 76.8952 195.975 73.9337ZM192.645 69.6651C192.573 67.9956 194.184 67.2154 193.999 69.7218C193.696 71.0705 192.845 71.6183 192.645 69.6651ZM192.965 62.51C193.172 63.1776 193.192 63.8131 192.419 64.0518C186.088 66.9477 191.685 59.8731 192.965 62.51ZM190.078 56.9006C191.288 57.5816 192.089 60.4259 189.9 59.0824C188.384 58.6793 187.122 58.4679 185.422 58.1194C182.132 55.7015 188.596 55.2589 190.078 56.9006ZM182.821 86.3873C181.385 83.6624 184.716 84.2497 186.245 84.8403C188.621 86.6566 184.073 87.1605 182.821 86.3873ZM182.882 61.9872C181.973 61.8182 181.094 61.2097 179.913 61.3393C178.029 57.1852 184.416 59.1683 182.882 61.9872ZM180.665 64.5153C182.366 63.3396 181.391 68.7495 180.71 69.5108C178.252 72.2232 180.091 65.4168 180.665 64.5153ZM195.538 97.1721C195.016 100.029 193.179 102.345 193.911 97.7093C194.011 96.0073 196.115 94.2783 195.538 97.1721ZM173.792 57.1305C174.466 54.7636 175.561 52.9227 176.471 50.5294C177.498 51.4822 177.804 53.1729 176.996 54.5415C176.489 55.3575 174.026 60.4489 173.792 57.1305ZM174.115 64.8829C173.841 66.0046 174.939 67.214 174.478 68.0785C171.356 68.4227 172.75 59.4138 174.115 64.8829ZM167.251 46.8752C168.626 46.8764 172.643 46.413 171.636 48.5584C170.113 48.7862 164.49 49.5351 167.251 46.8752ZM167.937 51.9137C168.864 52.3353 170.252 53.8847 169.397 54.8727C167.968 55.2527 166.586 52.787 167.937 51.9137ZM168.118 69.9695C167.979 70.6748 168.301 73.8355 166.907 73.3941C165.804 70.9608 166.861 65.537 169.21 70.0657C168.868 70.0357 168.538 70.0065 168.118 69.9695ZM167.309 62.978C167.553 63.5486 166.627 64.8863 166.07 64.006C165.593 63.3593 166.685 61.283 167.309 62.978ZM162.259 53.529C163.61 55.4722 165.931 56.4659 167.714 58.3295C169.491 61.685 164.446 58.9978 163.515 57.7957C162.666 57.078 160.327 54.0841 162.259 53.529ZM158.337 69.0641C159.636 67.805 162.533 65.3098 161.162 68.9707C160.541 70.052 157.776 71.613 158.337 69.0641ZM160.844 63.5719C159.298 62.607 158.373 64.1886 156.898 64.3615C155.329 61.7486 161.709 60.019 160.844 63.5719ZM152.927 55.3909C154.069 56.0734 156.781 58.0979 155.746 59.3855C154.358 58.943 151.731 56.7198 152.927 55.3909ZM145.395 80.875C145.501 79.9508 146.957 79.6083 146.472 81.128C146.907 81.6925 147.862 82.3962 147.616 83.4837C146.695 85.1553 144.583 82.2066 145.395 80.875ZM144.895 73.5117C147.248 74.5205 145.314 75.7675 143.567 75.8279C142.466 74.5918 143.271 73.1653 144.895 73.5117ZM145.16 49.6345C142.912 47.1724 150.183 47.8088 149.453 50.0307C148.177 49.5693 146.653 50.0877 145.16 49.6345ZM225.866 89.5837C222.23 85.8652 217.689 83.6315 214.195 79.7834C202.032 65.7886 206.054 70.8427 200.619 70.3659C199.425 69.2961 200.794 68.1713 202.288 68.501C196.191 58.3622 189.598 54.6837 183.372 48.244C182.647 47.1711 181.534 50.1365 180.353 48.244C179.539 47.2227 181.632 46.7295 180.867 45.9356C177.567 42.2905 178.858 43.7301 175.802 45.8804C174.901 44.7454 175.634 43.7841 176.689 42.8999C174.568 43.0898 175.14 41.6374 173.828 41.3047C169.035 42.0988 164.773 44.2934 159.993 44.496C158.282 45.0903 158.059 48.7751 157.352 50.3515C155.843 51.0898 156.253 46.0365 156.898 45.2442C156.555 45.2415 155.327 44.1202 153.826 44.3507C137.123 43.7344 134.279 41.8696 140.651 51.9137C141.326 53.926 144.019 52.4776 145.067 54.0273C145.377 54.8542 144.618 54.9224 143.796 54.8472C143.908 54.9882 144.019 55.1299 144.131 55.2709C142.067 57.1097 146.019 58.8988 146.894 60.7085C147.878 62.0522 148.191 64.8453 150.222 63.487C150.536 64.5844 152.058 63.5752 153.077 63.7724C154.187 64.6499 152.667 65.731 151.639 65.8757C152.522 66.7168 151.228 67.2992 151.437 68.427C152.756 70.3811 154.856 78.4424 150.609 75.3903C149.182 73.7832 150.961 73.0928 152.627 73.4841C152.749 72.7161 152.417 71.6235 152.068 70.7363C151.006 71.5865 149.293 71.8007 150.222 69.5108C148.269 69.9688 145.971 70.4357 143.738 70.4472C145.081 73.4423 141.841 72.2487 140.977 70.4857C140.28 70.3122 138.726 70.1917 137.739 70.1453C138.422 72.6641 140.196 75.8811 140.977 78.7051C141.881 77.846 143.674 79.2392 142.844 80.0555C142.844 80.0555 141.506 80.6707 140.977 80.7883C141.899 83.2741 141.92 98.1868 142.844 94.2392C143.064 92.4872 145.203 90.683 144.174 89.648C141.896 87.7995 144.95 86.612 145.714 88.7135C147.498 86.6387 150.267 85.2482 151.437 82.4994C152.58 83.1495 153.159 82.1724 153.781 80.7883C154.262 81.7869 156.076 81.7478 156.605 80.5578C157.037 79.5972 156.281 79.1331 157.594 78.5033C158.895 77.8839 158.314 76.4189 159.186 75.086C159.924 74.5452 160.35 76.4019 159.951 77.1211C160.491 77.337 161.225 76.118 161.778 76.7301C164.962 77.6944 168.635 76.5217 171.906 76.0992C173.179 75.828 176.162 81.1105 177.244 82.4994C180.344 78.2501 181.054 81.4381 178.52 83.6475C180.629 86.0918 183.331 89.5739 185.423 92.36C185.144 90.6944 187.757 88.1195 187.989 89.9656C186.193 92.5576 189.103 96.4038 190.32 98.4255C191.069 99.5578 191.701 100.892 192.183 102.184C194.3 101.489 197.131 100.22 199.232 98.8038C198.034 98.0181 199.085 96.9307 200.527 97.4867C199.866 96.8558 200.728 96.112 200.425 95.0412C199.678 93.3596 198.189 92.7371 196.587 92.2436C193.849 95.394 189.654 90.4282 195.941 91.3446C194.733 89.726 192.787 86.8237 190.857 86.1173C188.921 86.6077 186.611 84.8457 189.329 83.9403C187.408 81.9489 188.883 81.3895 187.924 80.1104C187.179 79.0927 185.535 78.2119 185.067 76.7744C185.049 75.3851 183.62 73.667 185.736 73.3583C184.965 73.509 185.472 67.5055 186.611 69.7978C187.272 70.6286 185.903 73.8542 187.535 72.8432C187.946 75.0903 188.688 74.8094 190.079 75.3903C190.596 75.9972 191.126 76.7698 191.785 77.5406C193.122 75.2817 196.62 75.6533 195.205 78.4506C194.793 78.0329 194.399 78.2822 193.72 78.7051C198.265 83.2544 201.106 87.9891 204.892 90.6745C208.678 93.3599 211.581 96.6037 215.623 99.0416C217.125 103.309 216.332 104.537 221.009 105.423C221.909 106.873 222.052 108.234 223.554 107.51C223.734 107.821 224.13 108.143 224.489 108.671C224.569 107.501 227.214 103.378 227.598 106.335C226.741 107.369 225.923 109.41 225.074 110.535C225.699 111.86 226.793 113.522 226.985 115.275C228.943 113.639 231.206 111.223 233.209 109.864C233.092 109.094 233.217 108.367 233.611 107.51C234.588 110.935 234.685 107.903 236.5 108.428C237.015 108.826 237.764 108.44 238.437 108.344C238.61 107.705 239.227 106.797 238.441 105.955C235.517 98.4031 229.731 94.7403 225.866 89.5837Z" fill="#BDBDBD"/>
<path fill-rule="evenodd" clip-rule="evenodd" d="M203.433 111.872C203.905 111.459 203.158 110.136 203.157 109.157C203.348 105.675 206.06 113.293 208.465 112.745C207.494 111.708 207.076 109.121 205.654 109.929C207.04 109.006 205.326 106.442 206.954 105.265C206.072 104.879 204.319 102.282 203.562 103.697C202.901 102.755 202.28 101.87 201.614 100.921C200.799 101.873 198.099 101.677 198.071 103.216C198.217 103.996 199.321 104.867 198.24 105.478C198.755 107.362 199.112 109.851 200.574 111.565C200.401 105.926 201.831 109.042 203.433 111.872ZM233.639 112.273C234.901 113.431 239.077 117.236 237.966 117.945C236.43 118.42 237.009 119.842 236.825 121.392C238.884 118.753 238.695 123.374 239.28 124.713C239.918 126.652 241.258 127.804 242.701 129.417C239.566 119.475 242.33 125.528 246.504 128.582C246.199 127.081 245.091 125.616 243.888 124.391C241.935 119.818 248.088 127.785 249.587 127.286C249.013 126.368 249.073 124.719 247.991 124.007C245.439 122.62 243.917 119.992 242.587 117.228C240.239 115.768 240.306 112.145 238.444 109.567C237.014 109.796 235.173 111.374 233.639 112.273ZM131.611 127.369C131.918 125.473 132.374 123.263 132.761 121.225C132.072 117.128 131.711 113.334 131.396 109.05C130.177 101.806 131.581 99.107 124.314 98.6596C123.482 98.6118 123.758 100.8 123.508 101.738C122.881 102.504 123.183 103.201 122.779 104.146C122.313 104.918 123.465 106.01 123.761 107.05C127.218 113.556 126.808 120.882 129.946 127.587C130.015 126.792 130.85 126.708 131.611 127.369ZM182.574 48.0523C181.153 46.5477 179.517 44.7223 177.814 43.1674C172.705 42.159 167.587 44.1779 162.356 45.4971C154.586 47.1539 144.036 46.5382 138.159 44.502C138.071 48.6947 141.63 51.9908 143.98 55.4371C149.708 62.8264 156.805 71.3289 154.457 80.5451C169.186 69.3366 178.697 78.1329 189.323 71.7118C189.868 72.4049 189.503 73.0275 189.297 74.0626C191.321 76.6065 193.921 79.2161 196.579 81.4758C209.166 93.8902 224.352 102.405 227.171 114.317C230.893 111.569 234.704 107.465 238.28 108.33C232.091 95.8325 219.157 88.2733 209.821 78.0711C207.221 75.1746 205.009 72.5704 202.614 69.3459C196.143 58.3625 188.929 54.688 182.574 48.0523ZM214.059 48.8818C210.607 48.399 209.967 48.4032 207.461 46.1075C206.567 49.03 202.903 45.5386 204.805 51.0253C202.994 52.7389 202.509 49.5613 203.163 48.1098C197.737 48.147 202.161 53.4189 202.994 56.1179C201.711 57.7781 200.019 54.9523 199.723 53.5865C197.624 54.2259 195.395 54.5597 193.073 55.1095C210.153 70.2086 198.628 67.4375 208.195 62.6841C208.742 62.2643 208.242 61.2627 209.193 60.6723C209.57 60.4475 209.95 60.6102 210.155 61.2124C211.209 66.7833 215.494 62.3544 211.826 59.898C211.844 58.9884 213.521 59.4961 213.363 58.3919C213.339 54.1681 216.647 50.9211 219.489 47.972C219.07 47.8881 218.735 47.8207 218.39 47.7513C218.588 47.938 218.75 48.0904 218.95 48.2791C218.102 48.868 217.171 48.6023 216.442 48.9895C216.237 50.5852 215.65 51.3007 214.537 51.1932C214.696 50.4513 214.853 49.7212 215.014 48.9694C214.94 48.9528 214.537 48.8658 214.059 48.8818ZM143.5 70.4861C141.846 70.6796 140.177 70.4311 138.287 70.4639C142.964 80.6733 141.696 86.2966 142.495 94.2392C144.075 88.1887 149.281 86.4123 151.348 81.1798C152.804 77.9465 153.068 74.7075 151.973 71.1555C151.76 70.4455 151.275 69.4165 150.285 69.8178C148.122 70.6015 145.898 70.3997 143.5 70.4861ZM142.511 68.0127C144.99 68.1987 147.651 68.3313 150.376 67.8709C148.894 65.2676 147.435 62.8361 145.41 60.3522C133.401 45.3846 140.791 47.4369 133.705 47.572C137.799 53.6427 139.037 60.7794 138.726 68.0127H142.511ZM187.838 94.018C194.851 102.137 189.533 103.045 197.451 99.7366C198.298 98.7598 201.32 98.6967 200.173 97.1564C197.119 92.2188 193.193 88.3249 189.13 83.9599C183.428 76.5418 185.952 76.5702 181.626 77.3863C179.194 77.8592 177.039 77.3167 174.436 77.8479C178.612 83.2529 183.495 88.4501 187.838 94.018ZM198.152 52.5488C198.352 52.5076 198.552 52.4661 198.712 52.4331C196.948 46.5005 202.295 46.5693 206.006 45.8777C206.338 45.0686 206.527 44.3341 207.771 44.3047C211.028 46.2112 210.175 46.7855 214.479 47.2181C215.56 47.3874 216.251 47.6973 217.543 47.6852C217.971 47.3547 218.337 46.8743 219.068 46.7898C223.724 46.374 227.955 49.7041 229.366 54.0834C230.458 56.7263 229.365 59.5295 228.378 62.15C229.888 66.389 242.53 66.2927 237.721 73.0431C244.257 76.5406 250.677 80.8986 255.682 86.7049C258.139 89.7505 261.445 96.7153 255.276 97.0561C254.425 97.0158 252.983 97.4632 252.966 98.7701C253.194 100.967 254.918 102.142 255.732 104.318C263.981 121.209 245.749 111.194 239.189 106.58C239.428 107.283 239.814 108.218 240.052 109.04C239.833 109.434 239.683 109.409 240.293 110.023C242.467 112.484 242.799 115.355 245.022 117.878C246.16 120.562 253.962 123.885 250.479 126.286C251.802 129.837 250.067 129.665 247.576 127.8C249.342 131.96 246.451 130.54 244.25 128.64C247.568 140.16 237.58 128.908 237.318 124.599C234.243 127.355 234.005 123.136 234.475 120.811C234.386 120.092 235.333 119.378 234.457 118.92C235.505 117.649 234.692 115.465 233.498 114.102C232.261 111.11 228.828 116.472 226.469 115.913C224.386 113.306 222.509 109.657 220.361 106.468C218.948 111.522 214.712 113.557 211.663 108.163C209.953 103.736 210.455 99.0578 207.106 95.2713C203.007 89.5165 197.74 85.1418 192.62 80.1777C186.923 74.4403 190.248 73.8298 185.421 76.4957C190.646 83.6488 199.008 88.8495 202.48 97.3681C202.621 98.4392 202.601 99.2804 203.517 100.157C204.441 102.082 206.047 102.784 207.691 104.029C209.124 105.295 209.809 107.68 207.042 107.367C207.954 109.808 210.331 111.652 211.182 114.216C212.284 118.084 205.937 113.597 205.071 112.518C205.365 115.405 204.159 115.423 202.584 112.946C202.955 117.757 199.107 112.125 198.632 110.482C197.63 108.267 197.95 106.045 196.593 103.919C195.982 102.848 193.124 104.634 192.049 104.564C190.724 104.362 187.5 102.603 190.513 102.036C185.731 93.4638 177.678 86.9657 173.222 78.0409C167.015 76.5194 159.542 80.6049 154.276 84.4398C140.592 95.9417 145.175 99.7378 141.492 96.7892C138.025 91.4531 140.509 84.8326 139.055 78.7864C138.647 76.7351 137.852 73.7747 136.654 72.214C136.161 72.2561 135.832 72.3974 135.55 71.7479C135.309 70.5586 134.779 70.7238 133.653 71.2278C131.612 71.9911 130.115 72.6185 127.838 72.7757C117.071 72.6833 106.691 71.5611 95.8407 70.4572C105.304 76.958 109.325 83.5165 115.711 88.9929C122.642 95.5368 124.281 93.5154 123.782 97.0302C125.682 97.9619 129.952 96.5369 131.078 99.6242C134.18 107.868 133.446 116.889 134.903 125.64C133.011 125.344 134.777 131.309 131.754 129.451C130.058 134.645 126.077 122.988 125.957 121.675C124.886 116.519 124.239 111.396 122.293 106.344C121.73 106.898 121.44 108.808 120.042 108.117C116.045 106.434 112.25 104.249 108.359 101.97C98.4443 96.9149 89.5231 90.4678 81.8043 82.4751C77.4647 78.0704 71.5324 73.6075 72.2813 66.6269C73.1068 59.4523 93.1251 53.736 97.1019 52.0124C103.141 48.9508 132.402 40.5307 133.015 45.9272C134.43 46.145 134.471 44.6107 135.46 43.7758C136.066 43.1769 136.64 43.7882 137.085 42.7737C143.299 43.5271 149.733 43.6388 156.189 43.3923C163.045 43.4147 168.727 39.2512 175.731 40.5146C181.896 43.3529 185.87 50.6244 192.119 54.0437C194.015 53.34 195.884 52.5446 198.152 52.5488Z" fill="black"/>
<path fill-rule="evenodd" clip-rule="evenodd" d="M77.3132 124.104C76.4119 129.894 75.1732 130.166 71.1955 133.624C67.2771 138.063 62.3907 141.796 59.1607 146.991C66.431 140.332 76.8934 141.175 80.0646 136.576C81.5763 134.215 81.5794 131.587 81.8025 128.704C82.9765 122.536 81.6229 125.189 77.3132 124.104ZM76.2201 123.825C75.5327 123.036 75.4089 124.506 74.5279 123.888C73.9239 121.012 74.9057 117.834 74.9771 114.703C76.0718 104.208 78.0291 94.1138 82.8653 84.5488C99.0871 98.9264 97.4599 92.2559 92.6887 103.365C90.5738 106.41 89.6302 109.672 88.3649 113.301C86.9935 117.106 85.1051 120.302 85.5489 124.641C85.3558 125.619 83.8456 124.243 83.9087 125.461C83.6121 129.162 83.7825 132.751 82.5941 136.432C81.458 139.193 79.266 141.112 76.1447 141.724C69.6623 143.949 63.5452 145.648 58.321 150.702C51.2432 151.682 62.376 138.069 64.292 137.065C70.9684 129.556 75.2879 128.413 76.2201 123.825Z" fill="black"/>
<path fill-rule="evenodd" clip-rule="evenodd" d="M142.315 43.0217C141.761 42.974 141.206 42.9266 140.651 42.8789C141.206 42.9266 141.761 42.974 142.315 43.0217Z" fill="black"/>
<path fill-rule="evenodd" clip-rule="evenodd" d="M125.883 72.7744C126.23 72.7789 126.578 72.7834 126.923 72.788C126.574 72.7834 126.228 72.7789 125.883 72.7744Z" fill="black"/>
<path fill-rule="evenodd" clip-rule="evenodd" d="M127.547 44.0811C127.133 44.3161 126.718 44.3897 126.299 44.1013C126.715 44.0943 127.131 44.0877 127.547 44.0811Z" fill="black"/>
<path fill-rule="evenodd" clip-rule="evenodd" d="M131.083 44.2426C130.667 44.2039 130.251 44.1656 129.835 44.127C130.251 44.1656 130.667 44.2039 131.083 44.2426Z" fill="black"/>
<path fill-rule="evenodd" clip-rule="evenodd" d="M213.662 46.9263C213.246 46.8814 212.83 46.837 212.414 46.7925C212.83 46.837 213.246 46.8818 213.662 46.9263Z" fill="black"/>
<path fill-rule="evenodd" clip-rule="evenodd" d="M221.566 46.7209C221.22 46.6761 220.873 46.6312 220.526 46.5864C220.873 46.6312 221.22 46.6761 221.566 46.7209Z" fill="black"/>
<path fill-rule="evenodd" clip-rule="evenodd" d="M198.062 52.4102C197.715 52.4126 197.368 52.4155 197.021 52.418L198.062 52.4102Z" fill="black"/>
<path fill-rule="evenodd" clip-rule="evenodd" d="M124.635 44.4675C124.288 44.4708 123.941 44.4741 123.595 44.4774C123.94 44.2285 124.287 44.2668 124.635 44.4675Z" fill="black"/>
<path fill-rule="evenodd" clip-rule="evenodd" d="M134.032 115.779C134.007 115.436 133.983 115.092 133.958 114.75C133.983 115.093 134.007 115.436 134.032 115.779Z" fill="black"/>
<path fill-rule="evenodd" clip-rule="evenodd" d="M128.379 72.582C128.588 72.5775 128.796 72.5729 129.003 72.5688C128.793 72.5733 128.586 72.5779 128.379 72.582Z" fill="black"/>
<path fill-rule="evenodd" clip-rule="evenodd" d="M250.063 129.15C250.272 129.15 250.481 129.151 250.688 129.152C250.478 129.152 250.271 129.151 250.063 129.15Z" fill="black"/>
<path fill-rule="evenodd" clip-rule="evenodd" d="M115.69 45.9702C115.413 46.0146 115.135 46.0587 114.858 46.1031C115.136 46.0587 115.413 46.0142 115.69 45.9702Z" fill="black"/>
<path fill-rule="evenodd" clip-rule="evenodd" d="M111.322 71.965C111.531 71.9605 111.74 71.9563 111.946 71.9521C111.736 71.9563 111.529 71.9609 111.322 71.965Z" fill="black"/>
<path fill-rule="evenodd" clip-rule="evenodd" d="M172.548 40.1899C172.251 40.1923 171.954 40.1945 171.657 40.1967C171.954 40.1945 172.251 40.192 172.548 40.1899Z" fill="black"/>
<path fill-rule="evenodd" clip-rule="evenodd" d="M142.523 67.7715C142.87 67.8196 143.217 67.8681 143.564 67.9163C143.217 67.8681 142.87 67.8196 142.523 67.7715Z" fill="black"/>
<path fill-rule="evenodd" clip-rule="evenodd" d="M214.702 48.7166C214.493 48.7125 214.284 48.7084 214.078 48.7051C214.288 48.7096 214.495 48.7129 214.702 48.7166Z" fill="black"/>
<path fill-rule="evenodd" clip-rule="evenodd" d="M212.83 49.1228C212.308 50.1527 210.851 49.9013 212.046 51.4109C213.254 52.4105 211.639 52.9848 210.78 52.3585C209.14 50.7193 210.868 49.0815 212.83 49.1228Z" fill="black"/>
</svg>
